<svg width="32" height="32" viewBox="0 0 32 32" fill="none" xmlns="http://www.w3.org/2000/svg">
<path d="M28 2C28.5304 2 29.0391 2.21071 29.4142 2.58579C29.7893 2.96086 30 3.46957 30 4V28C30 28.5304 29.7893 29.0391 29.4142 29.4142C29.0391 29.7893 28.5304 30 28 30H4C3.46957 30 2.96086 29.7893 2.58579 29.4142C2.21071 29.0391 2 28.5304 2 28V4C2 3.46957 2.21071 2.96086 2.58579 2.58579C2.96086 2.21071 3.46957 2 4 2H28ZM4 0C2.93913 0 1.92172 0.421427 1.17157 1.17157C0.421427 1.92172 0 2.93913 0 4L0 28C0 29.0609 0.421427 30.0783 1.17157 30.8284C1.92172 31.5786 2.93913 32 4 32H28C29.0609 32 30.0783 31.5786 30.8284 30.8284C31.5786 30.0783 32 29.0609 32 28V4C32 2.93913 31.5786 1.92172 30.8284 1.17157C30.0783 0.421427 29.0609 0 28 0L4 0Z" fill="black"/>
<path d="M16 8C16.2652 8 16.5196 8.10536 16.7071 8.29289C16.8946 8.48043 17 8.73478 17 9V15H23C23.2652 15 23.5196 15.1054 23.7071 15.2929C23.8946 15.4804 24 15.7348 24 16C24 16.2652 23.8946 16.5196 23.7071 16.7071C23.5196 16.8946 23.2652 17 23 17H17V23C17 23.2652 16.8946 23.5196 16.7071 23.7071C16.5196 23.8946 16.2652 24 16 24C15.7348 24 15.4804 23.8946 15.2929 23.7071C15.1054 23.5196 15 23.2652 15 23V17H9C8.73478 17 8.48043 16.8946 8.29289 16.7071C8.10536 16.5196 8 16.2652 8 16C8 15.7348 8.10536 15.4804 8.29289 15.2929C8.48043 15.1054 8.73478 15 9 15H15V9C15 8.73478 15.1054 8.48043 15.2929 8.29289C15.4804 8.10536 15.7348 8 16 8Z" fill="black"/>
</svg>
